<svg fill="none" height="216" viewBox="0 0 263 216" width="263" xmlns="http://www.w3.org/2000/svg"><path d="m66.976 215.88c38.016 0 65.664-28.224 65.664-62.784v-89.856c0-37.44-27.648-62.78401-65.664-62.78401-38.592 0-66.239999 28.22401-66.239999 62.78401v89.856c0 37.44 27.647999 62.784 66.239999 62.784zm0-29.952c-19.008 0-32.832-14.4-32.832-32.832v-89.856c0-19.008 13.824-32.832 32.832-32.832 18.432 0 32.256 13.824 32.256 32.832v89.856c0 18.432-13.824 32.832-32.256 32.832zm162.306 27.072h33.408v-209.66401h-28.8l-57.6 59.32801 23.04 21.888 29.952-31.68z" fill="#fff" fill-opacity=".8"/></svg>