<svg fill="none" height="216" viewBox="0 0 296 216" width="296" xmlns="http://www.w3.org/2000/svg"><path d="m66.976 215.88c38.016 0 65.664-28.224 65.664-62.784v-89.856c0-37.44-27.648-62.78401-65.664-62.78401-38.592 0-66.239999 28.22401-66.239999 62.78401v89.856c0 37.44 27.647999 62.784 66.239999 62.784zm0-29.952c-19.008 0-32.832-14.4-32.832-32.832v-89.856c0-19.008 13.824-32.832 32.832-32.832 18.432 0 32.256 13.824 32.256 32.832v89.856c0 18.432-13.824 32.832-32.256 32.832zm102.978 27.072h125.568v-29.952h-83.52l66.24-78.912c12.096-14.4 17.28-28.8 17.28-42.624 0-36.864-26.496-61.05601-63.936-61.05601s-63.936 26.49601-63.936 62.78401c0 16.704 8.064 32.832 23.04 43.776l20.736-24.192c-5.76-5.184-10.368-11.52-10.368-19.584 0-20.16 12.672-32.832 30.528-32.832s31.104 12.672 31.104 31.104c0 7.488-2.88 14.976-9.792 23.616l-82.944 100.8z" fill="#fff" fill-opacity=".8"/></svg>