<svg fill="none" height="17" viewBox="0 0 17 17" width="17" xmlns="http://www.w3.org/2000/svg"><path clip-rule="evenodd" d="m2.38814.933535c-.38577 0-.75574.153245-1.02852.426025s-.426026.64275-.426026 1.02852v13.09092c0 .3858.153246.7557.426026 1.0285s.64275.426 1.02852.426h13.09086c.3858 0 .7558-.1532 1.0286-.426.2727-.2728.426-.6427.426-1.0285v-5.0909c0-.1929-.0766-.3779-.213-.51428-.1364-.13639-.3214-.21301-.5143-.21301s-.3778.07662-.5142.21301c-.1364.13638-.2131.32138-.2131.51428v5.0909h-13.09086v-13.09092h5.09091c.19288 0 .37787-.07662.51426-.21301s.21301-.32138.21301-.51426c0-.19289-.07662-.37787-.21301-.51426s-.32138-.213015-.51426-.213015zm14.33306.212365c.1353.13558.2116.31904.2124.51054v4.368c0 .19289-.0766.37787-.213.51426s-.3214.21302-.5143.21302-.3778-.07663-.5142-.21302-.2131-.32137-.2131-.51426v-2.608l-7.48504 7.48656c-.06762.0676-.1479.1212-.23624.1578-.08835.0366-.18304.0555-.27867.0555s-.19032-.0189-.27867-.0555-.16862-.0902-.23624-.1578-.12126-.1479-.15785-.2363c-.0366-.0883-.05543-.183-.05543-.2786s.01883-.1903.05543-.2787c.03659-.0883.09023-.16861.15785-.23623l7.48656-7.48509h-2.608c-.1929 0-.3779-.07662-.5143-.21301s-.213-.32138-.213-.51426c0-.19289.0766-.37787.213-.51426s.3214-.213015.5143-.213015h4.3636c.0956-.00025.1903.018381.2787.054825.0883.03644.1686.08998.2362.15754z" fill="#333" fill-rule="evenodd"/></svg>