<svg fill="none" height="17" viewBox="0 0 17 17" width="17" xmlns="http://www.w3.org/2000/svg"><path clip-rule="evenodd" d="m2.38814.933352c-.38577 0-.75574.153248-1.02852.426028s-.426026.64275-.426026 1.02852v13.0909c0 .3858.153246.7557.426026 1.0285s.64275.4261 1.02852.4261h13.09086c.3858 0 .7558-.1533 1.0286-.4261.2727-.2728.426-.6427.426-1.0285v-5.0909c0-.1929-.0766-.3779-.213-.51426-.1364-.13639-.3214-.21302-.5143-.21302s-.3778.07663-.5142.21302c-.1364.13636-.2131.32136-.2131.51426v5.0909h-13.09086v-13.0909h5.09091c.19288 0 .37787-.07663.51426-.21302s.21301-.32137.21301-.51426c0-.19288-.07662-.37786-.21301-.51425s-.32138-.213018-.51426-.213018zm14.33306.212368c.1353.13558.2116.31904.2124.51054v4.368c0 .19289-.0766.37787-.213.51426s-.3214.21301-.5143.21301-.3778-.07662-.5142-.21301-.2131-.32137-.2131-.51426v-2.608l-7.48504 7.48654c-.06762.0676-.1479.1213-.23624.1579-.08835.0366-.18304.0554-.27867.0554s-.19032-.0188-.27867-.0554-.16862-.0903-.23624-.1579-.12126-.1479-.15785-.2362c-.0366-.0884-.05543-.1831-.05543-.2787s.01883-.1903.05543-.2787c.03659-.0883.09023-.16859.15785-.23621l7.48656-7.48509h-2.608c-.1929 0-.3779-.07663-.5143-.21302s-.213-.32137-.213-.51426c0-.19288.0766-.37786.213-.51425s.3214-.213018.5143-.213018h4.3636c.0956-.00025.1903.018381.2787.054825.0883.036443.1686.089983.2362.157543z" fill="#fff" fill-rule="evenodd"/></svg>