<svg fill="none" height="92" viewBox="0 0 167 92" width="167" xmlns="http://www.w3.org/2000/svg"><g fill="#333"><path d="m166.484 45c0 5.9095-2.14 11.7611-6.298 17.2208-4.159 5.4596-10.253 10.4204-17.937 14.599-7.683 4.1786-16.804 7.4933-26.843 9.7548-10.039 2.2614-20.7982 3.4254-31.6641 3.4254-10.8658 0-21.6252-1.164-31.6639-3.4254-10.0388-2.2615-19.1602-5.5762-26.8435-9.7548s-13.778-9.1394-17.93615-14.599c-4.15817-5.4597-6.298351-11.3113-6.29835-17.2208h82.7419z"/><path d="m3.874 20.6523h1.508v-8.112h3.484v-1.352h-8.476v1.352h3.484zm6.2909 0h1.508v-4.056h6.682v-1.352h-6.682v-2.704h6.786v-1.352h-8.32v5.408z"/><path d="m35.0603 39.7911c8.16 0 15.04-6.8 15.04-14.96h-15.04v4.16h9.52c-1.52 3.84-5.12 6.56-9.52 6.56-5.92 0-10.32-4.8-10.32-10.72s4.4-10.72 10.32-10.72c3.04 0 5.6 1.2 7.44 3.2l3.2-3.2c-2.64-2.56-6.24-4.23999-10.64-4.23999-8.24 0-15.12 6.71999-15.12 14.95999 0 8.88 6.24 14.96 15.12 14.96zm26.245 0c2.08 0 3.92-.72 4.96-1.84v1.44h4.4v-8.32c0-5.2-3.76-8.72-8.96-8.72-4.8 0-8.96 3.92-8.96 8.72 0 5.2 3.52 8.72 8.56 8.72zm.4-4.16c-2.56 0-4.48-2-4.48-4.56 0-2.64 1.92-4.56 4.48-4.56 2.64 0 4.48 1.92 4.48 4.56 0 2.56-1.84 4.56-4.48 4.56zm13.2854 3.76h4.48v-10.4c0-1.28.88-2.08 2.08-2.08h1.28v-4.16h-1.6c-3.6 0-6.24 2.56-6.24 6.24zm19.6834.4c4.8 0 8.9599-3.92 8.9599-8.72v-20.8h-4.4799v13.52c-1.44-1.04-3.04-1.44-4.72-1.44-4.72 0-8.72 3.92-8.72 8.72 0 5.2 3.76 8.72 8.96 8.72zm0-4.16c-2.56 0-4.48-2-4.48-4.56 0-2.64 1.92-4.56 4.48-4.56 2.64 0 4.48 1.92 4.48 4.56 0 2.56-1.84 4.56-4.48 4.56zm21.9139 4.16c2.4 0 4.56-.96 6.16-2.56l-2.72-2.8c-1.2 1.12-2 1.52-3.44 1.52-2.24 0-4-1.36-4.56-3.36h13.52v-1.52c-.32-5.44-3.76-8.72-8.96-8.72-4.8 0-8.96 3.92-8.96 8.72 0 5.2 3.76 8.72 8.96 8.72zm-4.48-10.64c.64-1.84 2.24-3.2 4.48-3.2 2.32 0 3.92 1.28 4.56 3.2zm17.023 10.24h4.48v-8.32c0-2.64 1.92-4.56 4.48-4.56 2.64 0 4.48 1.92 4.48 4.56v8.32h4.48v-8.32c0-5.2-3.68-8.72-8.88-8.72-4.56 0-9.04 3.52-9.04 8.72z"/></g><path d="m33.6288 79.3042h17.12c4.96 0 8.32-4 8.32-8.32 0-4.8-3.36-8.32-8.32-8.32h-8.8c-2.48 0-4.16-1.68-4.16-4.16s1.68-4.16 4.16-4.16h14.64v-4.16h-15.12c-4.96 0-8.32 3.92-8.32 8.32 0 4.8 3.36 8.32 8.32 8.32h8.8c2.48 0 4.16 1.68 4.16 4.16s-1.68 4.16-4.16 4.16h-16.64zm37.1054.4c2.08 0 3.92-.72 4.96-1.84v1.44h4.4v-8.32c0-5.2-3.76-8.72-8.96-8.72-4.8 0-8.96 3.92-8.96 8.72 0 5.2 3.52 8.72 8.56 8.72zm.4-4.16c-2.56 0-4.48-2-4.48-4.56 0-2.64 1.92-4.56 4.48-4.56 2.64 0 4.48 1.92 4.48 4.56 0 2.56-1.84 4.56-4.48 4.56zm14.2265 3.76h4.48v-29.12h-4.48zm17.5223.4c2.08 0 3.92-.72 4.96-1.84v1.44h4.4v-8.32c0-5.2-3.76-8.72-8.96-8.72-4.8004 0-8.9604 3.92-8.9604 8.72 0 5.2 3.52 8.72 8.5604 8.72zm.4-4.16c-2.56 0-4.4804-2-4.4804-4.56 0-2.64 1.9204-4.56 4.4804-4.56 2.64 0 4.48 1.92 4.48 4.56 0 2.56-1.84 4.56-4.48 4.56zm21.445 4.16c4.8 0 8.96-3.92 8.96-8.72v-20.8h-4.48v13.52c-1.44-1.04-3.04-1.44-4.72-1.44-4.72 0-8.72 3.92-8.72 8.72 0 5.2 3.76 8.72 8.96 8.72zm0-4.16c-2.56 0-4.48-2-4.48-4.56 0-2.64 1.92-4.56 4.48-4.56 2.64 0 4.48 1.92 4.48 4.56 0 2.56-1.84 4.56-4.48 4.56z" fill="#159741"/></svg>