<svg fill="none" height="63" viewBox="0 0 118 63" width="118" xmlns="http://www.w3.org/2000/svg"><g fill="#fff"><path d="m117.871 31.5c0 4.1366-1.499 8.2328-4.409 12.0545-2.911 3.8218-7.177 7.2943-12.556 10.2194-5.3779 2.925-11.7629 5.2453-18.79 6.8283s-14.5587 2.3978-22.1648 2.3978-15.1377-.8148-22.1648-2.3978-13.412-3.9033-18.7904-6.8283c-5.3783-2.9251-9.64457-6.3976-12.55529-10.2194-2.91072-3.8217-4.40885-7.9179-4.40885-12.0545h57.91934z"/><path d="m3.05001 14.0806h1.18725v-6.38662h2.74296v-1.06444h-6.673172v1.06444h2.742962zm4.95282 0h1.18725v-3.1933h5.26072v-1.06446h-5.26072v-2.12886h5.34262v-1.06444h-6.55034v4.25776z"/><path d="m25.5834 28.3671c5.8462 0 10.7753-4.8718 10.7753-10.718h-10.7753v2.9804h6.8205c-1.089 2.7512-3.6682 4.6999-6.8205 4.6999-4.2414 0-7.3937-3.4389-7.3937-7.6803 0-4.2413 3.1523-7.68025 7.3937-7.68025 2.178 0 4.0121.85975 5.3303 2.29265l2.2926-2.29265c-1.8914-1.8341-4.4706-3.03773-7.6229-3.03773-5.9035 0-10.8327 4.81448-10.8327 10.71798 0 6.3621 4.4706 10.718 10.8327 10.718zm18.8031 0c1.4902 0 2.8084-.5158 3.5535-1.3182v1.0317h3.1524v-5.9609c0-3.7255-2.6939-6.2473-6.4194-6.2473-3.4389 0-6.4193 2.8084-6.4193 6.2473 0 3.7256 2.5219 6.2474 6.1328 6.2474zm.2865-2.9804c-1.8341 0-3.2096-1.4329-3.2096-3.267 0-1.8914 1.3755-3.2669 3.2096-3.2669 1.8914 0 3.2097 1.3755 3.2097 3.2669 0 1.8341-1.3183 3.267-3.2097 3.267zm9.5182 2.6939h3.2097v-7.4511c0-.917.6305-1.4902 1.4902-1.4902h.917v-2.9804h-1.1463c-2.5792 0-4.4706 1.8341-4.4706 4.4706zm14.1021.2865c3.4389 0 6.4194-2.8084 6.4194-6.2474v-14.902h-3.2097v9.6863c-1.0317-.7451-2.178-1.0316-3.3816-1.0316-3.3816 0-6.2474 2.8084-6.2474 6.2473 0 3.7256 2.6938 6.2474 6.4193 6.2474zm0-2.9804c-1.8341 0-3.2097-1.4329-3.2097-3.267 0-1.8914 1.3756-3.2669 3.2097-3.2669 1.8914 0 3.2097 1.3755 3.2097 3.2669 0 1.8341-1.3183 3.267-3.2097 3.267zm15.7002 2.9804c1.7195 0 3.267-.6877 4.4133-1.8341l-1.9487-2.006c-.8597.8024-1.4329 1.089-2.4646 1.089-1.6048 0-2.8658-.9744-3.267-2.4073h9.6864v-1.089c-.2293-3.8974-2.6939-6.2473-6.4194-6.2473-3.4389 0-6.4193 2.8084-6.4193 6.2473 0 3.7256 2.6938 6.2474 6.4193 6.2474zm-3.2096-7.6229c.4585-1.3183 1.6048-2.2926 3.2096-2.2926 1.6622 0 2.8085.917 3.267 2.2926zm12.1961 7.3364h3.2097v-5.9609c0-1.8914 1.3755-3.2669 3.2096-3.2669 1.8917 0 3.2097 1.3755 3.2097 3.2669v5.9609h3.21v-5.9609c0-3.7255-2.637-6.2473-6.3624-6.2473-3.2669 0-6.4766 2.5218-6.4766 6.2473z"/></g><path d="m24.0821 55.5161h12.2655c3.5536 0 5.9608-2.8658 5.9608-5.9608 0-3.4389-2.4072-5.9608-5.9608-5.9608h-6.3047c-1.7768 0-2.9804-1.2037-2.9804-2.9804 0-1.7768 1.2036-2.9804 2.9804-2.9804h10.4888v-2.9805h-10.8327c-3.5536 0-5.9608 2.8085-5.9608 5.9609 0 3.4389 2.4072 5.9608 5.9608 5.9608h6.3047c1.7768 0 2.9804 1.2036 2.9804 2.9804s-1.2036 2.9804-2.9804 2.9804h-11.9216zm26.5839.2866c1.4902 0 2.8084-.5158 3.5535-1.3183v1.0317h3.1524v-5.9608c0-3.7255-2.6938-6.2474-6.4193-6.2474-3.439 0-6.4194 2.8085-6.4194 6.2474 0 3.7255 2.5219 6.2474 6.1328 6.2474zm.2866-2.9804c-1.8341 0-3.2097-1.4329-3.2097-3.267 0-1.8914 1.3756-3.267 3.2097-3.267 1.8914 0 3.2096 1.3756 3.2096 3.267 0 1.8341-1.3182 3.267-3.2096 3.267zm10.1925 2.6938h3.2097v-20.8629h-3.2097zm12.5535.2866c1.4902 0 2.8084-.5158 3.5535-1.3183v1.0317h3.1524v-5.9608c0-3.7255-2.6939-6.2474-6.4194-6.2474-3.4389 0-6.4193 2.8085-6.4193 6.2474 0 3.7255 2.5219 6.2474 6.1328 6.2474zm.2865-2.9804c-1.8341 0-3.2096-1.4329-3.2096-3.267 0-1.8914 1.3755-3.267 3.2096-3.267 1.8914 0 3.2097 1.3756 3.2097 3.267 0 1.8341-1.3183 3.267-3.2097 3.267zm15.3644 2.9804c3.4389 0 6.4194-2.8085 6.4194-6.2474v-14.9021h-3.2097v9.6864c-1.0317-.7451-2.178-1.0317-3.3816-1.0317-3.3817 0-6.2474 2.8085-6.2474 6.2474 0 3.7255 2.6938 6.2474 6.4193 6.2474zm0-2.9804c-1.8341 0-3.2097-1.4329-3.2097-3.267 0-1.8914 1.3756-3.267 3.2097-3.267 1.8914 0 3.2097 1.3756 3.2097 3.267 0 1.8341-1.3183 3.267-3.2097 3.267z" fill="#159741"/></svg>