<svg fill="none" height="207" viewBox="0 0 1440 207" width="1440" xmlns="http://www.w3.org/2000/svg"><path d="m77.4234 209.8c57.1196 0 105.2796-47.6 105.2796-104.72h-105.2796v29.12h66.6396c-10.64 26.88-35.84 45.92-66.6396 45.92-41.44 0-72.23996-33.6-72.23996-75.04s30.79996-75.04 72.23996-75.04c21.28 0 39.1996 8.4 52.0796 22.4l22.4-22.4c-18.48-17.92-43.68-29.68001-74.4796-29.68001-57.68 0-105.84 47.04001-105.84 104.72001 0 62.16 43.68 104.72 105.84 104.72zm183.7146 0c14.56 0 27.44-5.04 34.72-12.88v10.08h30.8v-58.24c0-36.4-26.32-61.04-62.72-61.04-33.6 0-62.72 27.44-62.72 61.04 0 36.4 24.64 61.04 59.92 61.04zm2.8-29.12c-17.92 0-31.36-14-31.36-31.92 0-18.48 13.44-31.92 31.36-31.92 18.48 0 31.36 13.44 31.36 31.92 0 17.92-12.88 31.92-31.36 31.92zm92.998 26.32h31.36v-72.8c0-8.96 6.16-14.56 14.56-14.56h8.96v-29.12h-11.2c-25.2 0-43.68 17.92-43.68 43.68zm137.784 2.8c33.6 0 62.72-27.44 62.72-61.04v-145.60001h-31.36v94.64001c-10.08-7.28-21.28-10.08-33.04-10.08-33.04 0-61.04 27.44-61.04 61.04 0 36.4 26.32 61.04 62.72 61.04zm0-29.12c-17.92 0-31.36-14-31.36-31.92 0-18.48 13.44-31.92 31.36-31.92 18.48 0 31.36 13.44 31.36 31.92 0 17.92-12.88 31.92-31.36 31.92zm153.398 29.12c16.8 0 31.92-6.72 43.12-17.92l-19.04-19.6c-8.4 7.84-14 10.64-24.08 10.64-15.68 0-28-9.52-31.92-23.52h94.64v-10.64c-2.24-38.08-26.32-61.04-62.72-61.04-33.6 0-62.72 27.44-62.72 61.04 0 36.4 26.32 61.04 62.72 61.04zm-31.36-74.48c4.48-12.88 15.68-22.4 31.36-22.4 16.24 0 27.44 8.96 31.92 22.4zm119.162 71.68h31.36v-58.24c0-18.48 13.44-31.92 31.36-31.92 18.48 0 31.36 13.44 31.36 31.92v58.24h31.36v-58.24c0-36.4-25.76-61.04-62.16-61.04-31.92 0-63.28 24.64-63.28 61.04zm237.005 0h119.835c34.72 0 58.24-28 58.24-58.24 0-33.6-23.52-58.24-58.24-58.24h-61.6c-17.36 0-29.12-11.76-29.12-29.12s11.76-29.12 29.12-29.12h102.48v-29.12001h-105.84c-34.715 0-58.235 27.44001-58.235 58.24001 0 33.6 23.52 58.24 58.235 58.24h61.6c17.36 0 29.12 11.76 29.12 29.12s-11.76 29.12-29.12 29.12h-116.475zm259.735 2.8c14.56 0 27.44-5.04 34.72-12.88v10.08h30.8v-58.24c0-36.4-26.32-61.04-62.72-61.04-33.6 0-62.72 27.44-62.72 61.04 0 36.4 24.64 61.04 59.92 61.04zm2.8-29.12c-17.92 0-31.36-14-31.36-31.92 0-18.48 13.44-31.92 31.36-31.92 18.48 0 31.36 13.44 31.36 31.92 0 17.92-12.88 31.92-31.36 31.92zm99.59 26.32h31.36v-203.84001h-31.36zm122.65 2.8c14.56 0 27.44-5.04 34.72-12.88v10.08h30.8v-58.24c0-36.4-26.32-61.04-62.72-61.04-33.6 0-62.72 27.44-62.72 61.04 0 36.4 24.64 61.04 59.92 61.04zm2.8-29.12c-17.92 0-31.36-14-31.36-31.92 0-18.48 13.44-31.92 31.36-31.92 18.48 0 31.36 13.44 31.36 31.92 0 17.92-12.88 31.92-31.36 31.92zm150.12 29.12c33.6 0 62.72-27.44 62.72-61.04v-145.60001h-31.36v94.64001c-10.08-7.28-21.28-10.08-33.04-10.08-33.04 0-61.04 27.44-61.04 61.04 0 36.4 26.32 61.04 62.72 61.04zm0-29.12c-17.92 0-31.36-14-31.36-31.92 0-18.48 13.44-31.92 31.36-31.92 18.48 0 31.36 13.44 31.36 31.92 0 17.92-12.88 31.92-31.36 31.92z" fill="#676767" fill-opacity=".3"/></svg>