<svg fill="none" height="167" viewBox="0 0 368 167" width="368" xmlns="http://www.w3.org/2000/svg"><path d="m42.466 83.1c22.44 0 41.36-18.7 41.36-41.14h-41.36v11.44h26.18c-4.18 10.56-14.08 18.04-26.18 18.04-16.28 0-28.38-13.2-28.38-29.48s12.1-29.48 28.38-29.48c8.36 0 15.4 3.3 20.46 8.8l8.8-8.8c-7.26-7.04-17.16-11.660004-29.26-11.660004-22.66 0-41.579984 18.480004-41.579984 41.140004 0 24.42 17.159984 41.14 41.579984 41.14zm75.474 0c5.72 0 10.78-1.98 13.64-5.06v3.96h12.1v-22.88c0-14.3-10.34-23.98-24.64-23.98-13.2 0-24.6402 10.78-24.6402 23.98 0 14.3 9.6802 23.98 23.5402 23.98zm1.1-11.44c-7.04 0-12.32-5.5-12.32-12.54 0-7.26 5.28-12.54 12.32-12.54 7.26 0 12.32 5.28 12.32 12.54 0 7.04-5.06 12.54-12.32 12.54zm39.834 10.34h12.32v-28.6c0-3.52 2.42-5.72 5.72-5.72h3.52v-11.44h-4.4c-9.9 0-17.16 7.04-17.16 17.16zm57.43 1.1c13.2 0 24.64-10.78 24.64-23.98v-57.2h-12.32v37.18c-3.96-2.86-8.36-3.96-12.98-3.96-12.98 0-23.98 10.78-23.98 23.98 0 14.3 10.34 23.98 24.64 23.98zm0-11.44c-7.04 0-12.32-5.5-12.32-12.54 0-7.26 5.28-12.54 12.32-12.54 7.26 0 12.32 5.28 12.32 12.54 0 7.04-5.06 12.54-12.32 12.54zm63.564 11.44c6.6 0 12.54-2.64 16.94-7.04l-7.48-7.7c-3.3 3.08-5.5 4.18-9.46 4.18-6.16 0-11-3.74-12.54-9.24h37.18v-4.18c-.88-14.96-10.34-23.98-24.64-23.98-13.2 0-24.64 10.78-24.64 23.98 0 14.3 10.34 23.98 24.64 23.98zm-12.32-29.26c1.76-5.06 6.16-8.8 12.32-8.8 6.38 0 10.78 3.52 12.54 8.8zm50.113 28.16h12.32v-22.88c0-7.26 5.28-12.54 12.32-12.54 7.26 0 12.32 5.28 12.32 12.54v22.88h12.32v-22.88c0-14.3-10.12-23.98-24.42-23.98-12.54 0-24.86 9.68-24.86 23.98zm-238.1671 88h47.0801c13.64 0 22.88-11 22.88-22.88 0-13.2-9.24-22.88-22.88-22.88h-24.2c-6.8201 0-11.4401-4.62-11.4401-11.44s4.62-11.44 11.4401-11.44h40.26v-11.44h-41.58c-13.6401 0-22.8801 10.78-22.8801 22.88 0 13.2 9.24 22.88 22.8801 22.88h24.2c6.82 0 11.44 4.62 11.44 11.44s-4.62 11.44-11.44 11.44h-45.7601zm105.3401 1.1c5.72 0 10.78-1.98 13.64-5.06v3.96h12.1v-22.88c0-14.3-10.34-23.98-24.64-23.98-13.2 0-24.64 10.78-24.64 23.98 0 14.3 9.68 23.98 23.54 23.98zm1.1-11.44c-7.04 0-12.32-5.5-12.32-12.54 0-7.26 5.28-12.54 12.32-12.54 7.26 0 12.32 5.28 12.32 12.54 0 7.04-5.06 12.54-12.32 12.54zm42.423 10.34h12.32v-80.08h-12.32zm51.485 1.1c5.72 0 10.78-1.98 13.64-5.06v3.96h12.1v-22.88c0-14.3-10.34-23.98-24.64-23.98-13.2 0-24.64 10.78-24.64 23.98 0 14.3 9.68 23.98 23.54 23.98zm1.1-11.44c-7.04 0-12.32-5.5-12.32-12.54 0-7.26 5.28-12.54 12.32-12.54 7.26 0 12.32 5.28 12.32 12.54 0 7.04-5.06 12.54-12.32 12.54zm62.274 11.44c13.2 0 24.64-10.78 24.64-23.98v-57.2h-12.32v37.18c-3.96-2.86-8.36-3.96-12.98-3.96-12.98 0-23.98 10.78-23.98 23.98 0 14.3 10.34 23.98 24.64 23.98zm0-11.44c-7.04 0-12.32-5.5-12.32-12.54 0-7.26 5.28-12.54 12.32-12.54 7.26 0 12.32 5.28 12.32 12.54 0 7.04-5.06 12.54-12.32 12.54z" fill="#676767" fill-opacity=".3"/></svg>